<svg width="40" height="40" viewBox="0 0 40 40" fill="none" xmlns="http://www.w3.org/2000/svg">
<path d="M20.0009 0C8.95585 0 0 8.9541 0 20C0 31.0459 8.95498 40 20.0009 40C31.0477 40 40.0018 31.0459 40.0018 20C40.0018 8.9541 31.0477 0 20.0009 0ZM20.0009 5.98023C23.6556 5.98023 26.6172 8.94268 26.6172 12.5957C26.6172 16.2495 23.6556 19.2111 20.0009 19.2111C16.3479 19.2111 13.3863 16.2495 13.3863 12.5957C13.3863 8.94268 16.3479 5.98023 20.0009 5.98023ZM19.9965 34.7709C16.3514 34.7709 13.013 33.4434 10.438 31.2462C9.81067 30.7112 9.44872 29.9266 9.44872 29.1034C9.44872 25.3986 12.4472 22.4336 16.1529 22.4336H23.8506C27.5572 22.4336 30.5443 25.3986 30.5443 29.1034C30.5443 29.9275 30.1841 30.7103 29.5559 31.2453C26.9818 33.4434 23.6424 34.7709 19.9965 34.7709Z" fill="#46339C"/>
</svg>
